# xmcd CD database file
#
# Track frame offsets:
#	150
#	16564
#	41933
#	74621
#
# Disc length: 1447 seconds
#
# Revision: 0
# Processed by: cddbd v1.5.1PL0 Copyright (c) Steve Scherf et al.
# Submitted via: CDex 1.51
#
DISCID=2f05a504
DTITLE=Deepest blue - It is a sin
DYEAR=2004
DGENRE=House
TTITLE0=It is a sin
TTITLE1=Late september
TTITLE2=Give it away (Soulside remix)
TTITLE3=VIDEO
EXTD=YEAR: 2004
EXTT0=
EXTT1=
EXTT2=
EXTT3=
PLAYORDER=
